<mxfile host="app.diagrams.net" agent="Mozilla/5.0 (Windows NT 10.0; Win64; x64) AppleWebKit/537.36 (KHTML, like Gecko) Chrome/136.0.0.0 Safari/537.36" version="27.0.9">
  <diagram name="Page-1" id="LkOrLWu9mpOCzFyMnwEd">
    <mxGraphModel dx="1489" dy="1563" grid="1" gridSize="10" guides="1" tooltips="1" connect="1" arrows="1" fold="1" page="1" pageScale="1" pageWidth="1000" pageHeight="800" math="0" shadow="0">
      <root>
        <mxCell id="0" />
        <mxCell id="1" parent="0" />
        <mxCell id="system-boundary" value="" style="rounded=0;whiteSpace=wrap;html=1;fillColor=#f8f9fa;strokeColor=#6c757d;strokeWidth=2;fontSize=14;fontStyle=1;" parent="1" vertex="1">
          <mxGeometry x="160" y="-200" width="750" height="990" as="geometry" />
        </mxCell>
        <mxCell id="user-actor" value="Utilisateur" style="shape=umlActor;html=1;verticalLabelPosition=bottom;verticalAlign=top;align=center;fillColor=#dae8fc;strokeColor=#6c8ebf;" parent="1" vertex="1">
          <mxGeometry x="50" y="200" width="40" height="80" as="geometry" />
        </mxCell>
        <mxCell id="admin-actor" value="Administrateur" style="shape=umlActor;html=1;verticalLabelPosition=bottom;verticalAlign=top;align=center;fillColor=#ffe6cc;strokeColor=#d79b00;" parent="1" vertex="1">
          <mxGeometry x="50" y="500" width="40" height="80" as="geometry" />
        </mxCell>
        <mxCell id="login-uc" value="S&#39;authentifier" style="ellipse;whiteSpace=wrap;html=1;fillColor=#e1d5e7;strokeColor=#9673a6;" parent="1" vertex="1">
          <mxGeometry x="770" y="260" width="120" height="60" as="geometry" />
        </mxCell>
        <mxCell id="view-dashboard-uc" value="Consulter le tableau de bord" style="ellipse;whiteSpace=wrap;html=1;fillColor=#e1d5e7;strokeColor=#9673a6;" parent="1" vertex="1">
          <mxGeometry x="250" y="-170" width="140" height="60" as="geometry" />
        </mxCell>
        <mxCell id="analyze-sentiment-uc" value="Analyser les sentiments" style="ellipse;whiteSpace=wrap;html=1;fillColor=#e1d5e7;strokeColor=#9673a6;" parent="1" vertex="1">
          <mxGeometry x="250" y="-90" width="140" height="60" as="geometry" />
        </mxCell>
        <mxCell id="view-statistics-uc" value="Visualiser les statistiques" style="ellipse;whiteSpace=wrap;html=1;fillColor=#e1d5e7;strokeColor=#9673a6;" parent="1" vertex="1">
          <mxGeometry x="250" width="140" height="60" as="geometry" />
        </mxCell>
        <mxCell id="export-reports-uc" value="Exporter des rapports" style="ellipse;whiteSpace=wrap;html=1;fillColor=#e1d5e7;strokeColor=#9673a6;" parent="1" vertex="1">
          <mxGeometry x="250" y="80" width="140" height="60" as="geometry" />
        </mxCell>
        <mxCell id="search-comments-uc" value="Rechercher des commentaires" style="ellipse;whiteSpace=wrap;html=1;fillColor=#e1d5e7;strokeColor=#9673a6;" parent="1" vertex="1">
          <mxGeometry x="245" y="160" width="150" height="60" as="geometry" />
        </mxCell>
        <mxCell id="manage-users-uc" value="Gérer les utilisateurs" style="ellipse;whiteSpace=wrap;html=1;fillColor=#fff2cc;strokeColor=#d6b656;" parent="1" vertex="1">
          <mxGeometry x="240" y="240" width="140" height="60" as="geometry" />
        </mxCell>
        <mxCell id="configure-scraping-uc" value="Configurer le scraping" style="ellipse;whiteSpace=wrap;html=1;fillColor=#fff2cc;strokeColor=#d6b656;" parent="1" vertex="1">
          <mxGeometry x="240" y="320" width="140" height="60" as="geometry" />
        </mxCell>
        <mxCell id="monitor-system-uc" value="Surveiller le système" style="ellipse;whiteSpace=wrap;html=1;fillColor=#fff2cc;strokeColor=#d6b656;" parent="1" vertex="1">
          <mxGeometry x="240" y="480" width="140" height="60" as="geometry" />
        </mxCell>
        <mxCell id="manage-ml-model-uc" value="Gérer le modèle IA" style="ellipse;whiteSpace=wrap;html=1;fillColor=#fff2cc;strokeColor=#d6b656;" parent="1" vertex="1">
          <mxGeometry x="240" y="400" width="140" height="60" as="geometry" />
        </mxCell>
        <mxCell id="configure-auth-uc" value="Configurer l&#39;authentification" style="ellipse;whiteSpace=wrap;html=1;fillColor=#fff2cc;strokeColor=#d6b656;" parent="1" vertex="1">
          <mxGeometry x="230" y="690" width="160" height="60" as="geometry" />
        </mxCell>
        <mxCell id="manage-database-uc" value="Gérer la base de données" style="ellipse;whiteSpace=wrap;html=1;fillColor=#fff2cc;strokeColor=#d6b656;" parent="1" vertex="1">
          <mxGeometry x="230" y="550" width="160" height="60" as="geometry" />
        </mxCell>
        <mxCell id="analyze-performance-uc" value="Analyser les performances" style="ellipse;whiteSpace=wrap;html=1;fillColor=#fff2cc;strokeColor=#d6b656;" parent="1" vertex="1">
          <mxGeometry x="230" y="620" width="160" height="60" as="geometry" />
        </mxCell>
      </root>
    </mxGraphModel>
  </diagram>
</mxfile>
